<mxfile host="app.diagrams.net" modified="2024-03-04T06:32:46.412Z" agent="Mozilla/5.0 (Windows NT 10.0; Win64; x64) AppleWebKit/537.36 (KHTML, like Gecko) Chrome/121.0.0.0 Safari/537.36" etag="cOO29SilL3-bacORvQzG" version="24.0.1" type="github">
  <diagram name="第 1 页" id="YtbkjRx7Kh_wU9H5fSuY">
    <mxGraphModel dx="1834" dy="841" grid="0" gridSize="10" guides="1" tooltips="1" connect="1" arrows="1" fold="1" page="0" pageScale="1" pageWidth="1400" pageHeight="850" math="0" shadow="0">
      <root>
        <mxCell id="0" />
        <mxCell id="1" parent="0" />
        <mxCell id="OWkUHW18Mm1TgLvtEVSy-1" value="" style="shape=curlyBracket;whiteSpace=wrap;html=1;rounded=1;labelPosition=left;verticalLabelPosition=middle;align=right;verticalAlign=middle;" vertex="1" parent="1">
          <mxGeometry x="-384" y="50" width="25" height="667" as="geometry" />
        </mxCell>
      </root>
    </mxGraphModel>
  </diagram>
</mxfile>
